<?xml version="1.0" encoding="UTF-8"?>
<svg version="1.1" xmlns="http://www.w3.org/2000/svg" width="500" height="500">
<path d="M0 0 C1.21861725 -0.00637985 2.4372345 -0.0127597 3.69277954 -0.01933289 C5.03525757 -0.0208623 6.37773614 -0.02197587 7.72021484 -0.02270508 C9.09207189 -0.02591769 10.46392859 -0.02928177 11.83578491 -0.03279114 C14.71930738 -0.03879194 17.60279985 -0.04063029 20.48632812 -0.04003906 C24.16818445 -0.0399379 27.84984594 -0.05353834 31.53165627 -0.07081127 C34.36966826 -0.08197794 37.20763404 -0.08395677 40.04566574 -0.08342934 C42.05907369 -0.08517377 44.07246721 -0.09599367 46.08584595 -0.10697937 C52.22924149 -0.09170625 57.51437542 0.05063633 63.30615234 2.14526367 C65.02996487 2.34465048 66.76061372 2.49409658 68.49365234 2.58276367 C73.70639755 2.97821331 78.53930536 4.06794643 83.57958984 5.42651367 C85.29545048 5.87883223 87.02497705 6.28446465 88.76708984 6.62182617 C94.052058 7.71134269 99.16676685 9.51748677 104.30615234 11.14526367 C105.61132812 11.55325195 105.61132812 11.55325195 106.94287109 11.96948242 C111.29838715 13.36709284 115.2228015 15.06192141 119.30615234 17.14526367 C121.90403851 18.22066771 124.51561131 19.25441581 127.13427734 20.27807617 C129.30615234 21.14526367 129.30615234 21.14526367 131.30615234 22.14526367 C131.30615234 22.80526367 131.30615234 23.46526367 131.30615234 24.14526367 C132.29615234 23.81526367 133.28615234 23.48526367 134.30615234 23.14526367 C136.87255859 24.40307617 136.87255859 24.40307617 139.86865234 26.27026367 C143.66353663 28.58098743 147.41386406 30.74803402 151.43115234 32.64526367 C156.80332984 35.28018883 161.47755213 38.63355443 166.30615234 42.14526367 C167.91490234 43.25901367 167.91490234 43.25901367 169.55615234 44.39526367 C177.68596647 50.03436812 185.23898765 56.15320683 192.65380859 62.69995117 C194.42557123 64.24971991 196.22263604 65.7671056 198.02099609 67.28588867 C200.35197035 69.28119489 202.4732476 71.27340193 204.43115234 73.64526367 C206.60901663 76.2217549 208.83397575 78.71578517 211.18115234 81.13745117 C226.87751392 97.40651458 238.9144404 116.1247756 249.30615234 136.14526367 C249.88751953 137.21905273 250.46888672 138.2928418 251.06787109 139.39916992 C251.47650391 140.30538086 251.88513672 141.2115918 252.30615234 142.14526367 C251.97615234 142.80526367 251.64615234 143.46526367 251.30615234 144.14526367 C251.96615234 144.47526367 252.62615234 144.80526367 253.30615234 145.14526367 C254.20127031 146.6945063 255.02508585 148.28550468 255.80615234 149.89526367 C256.22896484 150.75635742 256.65177734 151.61745117 257.08740234 152.50463867 C266.22141489 172.29499918 272.47064283 195.48625138 274.30615234 217.14526367 C273.97615234 217.80526367 273.64615234 218.46526367 273.30615234 219.14526367 C273.96615234 219.14526367 274.62615234 219.14526367 275.30615234 219.14526367 C275.35261204 227.10814976 275.38809053 235.07097865 275.40977669 243.03396702 C275.420188 246.73200348 275.43429838 250.42994681 275.45703125 254.12792969 C275.47885473 257.70057521 275.4907409 261.27313148 275.49590683 264.84583855 C275.4995856 266.20490866 275.50676913 267.56397422 275.51761246 268.92300606 C275.5695895 275.71101527 275.57910658 281.71933337 273.30615234 288.14526367 C273.2829281 290.14512883 273.28250091 292.14540352 273.30615234 294.14526367 C272.88629062 296.34491662 272.40513196 298.53360945 271.86865234 300.70776367 C270.94138908 304.51088691 270.04362324 308.30039116 269.30615234 312.14526367 C268.64615234 312.14526367 267.98615234 312.14526367 267.30615234 312.14526367 C267.51111328 312.66604492 267.71607422 313.18682617 267.92724609 313.72338867 C268.46486576 317.15972057 267.45174752 319.61315707 266.36865234 322.89526367 C265.98837891 324.06573242 265.60810547 325.23620117 265.21630859 326.44213867 C264.91595703 327.33416992 264.61560547 328.22620117 264.30615234 329.14526367 C263.64615234 329.14526367 262.98615234 329.14526367 262.30615234 329.14526367 C262.63615234 330.13526367 262.96615234 331.12526367 263.30615234 332.14526367 C262.63427734 334.59838867 262.63427734 334.59838867 261.55615234 337.39526367 C261.18232422 338.37108398 260.80849609 339.3469043 260.42333984 340.35229492 C258.55017187 345.03521485 256.63556315 349.6656275 254.30615234 354.14526367 C253.64615234 354.14526367 252.98615234 354.14526367 252.30615234 354.14526367 C252.63615234 355.13526367 252.96615234 356.12526367 253.30615234 357.14526367 C252.58105469 359.10302734 252.58105469 359.10302734 251.39208984 361.31323242 C250.74433594 362.53042969 250.74433594 362.53042969 250.08349609 363.7722168 C249.62072266 364.61719727 249.15794922 365.46217773 248.68115234 366.33276367 C248.24158203 367.1584082 247.80201172 367.98405273 247.34912109 368.8347168 C244.53330888 374.07410932 241.50065173 379.13025038 238.30615234 384.14526367 C237.66291016 385.19713867 237.01966797 386.24901367 236.35693359 387.33276367 C235.78330078 388.26088867 235.20966797 389.18901367 234.61865234 390.14526367 C234.03728516 391.09401367 233.45591797 392.04276367 232.85693359 393.02026367 C232.34517578 393.72151367 231.83341797 394.42276367 231.30615234 395.14526367 C230.64615234 395.14526367 229.98615234 395.14526367 229.30615234 395.14526367 C229.03802734 395.88776367 228.76990234 396.63026367 228.49365234 397.39526367 C227.35338484 400.03588316 226.21234929 402.00079211 224.30615234 404.14526367 C223.64615234 404.14526367 222.98615234 404.14526367 222.30615234 404.14526367 C222.22365234 404.76401367 222.14115234 405.38276367 222.05615234 406.02026367 C221.06989796 408.8146511 219.87224835 408.86221567 217.30615234 410.14526367 C217.16000488 410.75523193 217.01385742 411.3652002 216.86328125 411.99365234 C216.19663009 414.56823458 215.21732051 415.65677193 213.39208984 417.57104492 C212.79525391 418.20333008 212.19841797 418.83561523 211.58349609 419.48706055 C210.95572266 420.13739258 210.32794922 420.78772461 209.68115234 421.45776367 C209.07658203 422.09649414 208.47201172 422.73522461 207.84912109 423.39331055 C206.01452474 425.32374402 204.16447135 427.2376692 202.30615234 429.14526367 C201.6807959 429.78818359 201.05543945 430.43110352 200.41113281 431.09350586 C199.80414551 431.71 199.1971582 432.32649414 198.57177734 432.96166992 C197.76015137 433.78646851 197.76015137 433.78646851 196.93212891 434.62792969 C194.75343995 436.66104558 192.37773123 438.29609578 189.91943359 439.96948242 C188.07711836 441.24838635 188.07711836 441.24838635 185.86865234 443.58276367 C182.61051744 446.84089857 179.03201195 449.4496607 175.30615234 452.14526367 C174.64615234 452.63768555 173.98615234 453.13010742 173.30615234 453.63745117 C168.54979641 457.14526367 168.54979641 457.14526367 166.30615234 457.14526367 C166.30615234 457.80526367 166.30615234 458.46526367 166.30615234 459.14526367 C164.65615234 459.47526367 163.00615234 459.80526367 161.30615234 460.14526367 C161.30615234 460.80526367 161.30615234 461.46526367 161.30615234 462.14526367 C159.47021484 463.44213867 159.47021484 463.44213867 156.93115234 464.89526367 C156.01720703 465.4237793 155.10326172 465.95229492 154.16162109 466.49682617 C153.21931641 467.04081055 152.27701172 467.58479492 151.30615234 468.14526367 C149.61774815 469.18546413 147.93021661 470.22708264 146.24365234 471.27026367 C142.38148977 473.59241165 138.48027974 475.51779934 134.33349609 477.27416992 C132.56287461 478.03495719 130.83555995 478.89497744 129.11865234 479.77026367 C126.22083153 481.18697607 123.37138442 482.14316857 120.30615234 483.14526367 C118.69865679 483.78276618 117.09478409 484.42944253 115.49365234 485.08276367 C103.33528538 489.99745801 103.33528538 489.99745801 97.30615234 491.14526367 C96.64615234 490.81526367 95.98615234 490.48526367 95.30615234 490.14526367 C95.30615234 490.80526367 95.30615234 491.46526367 95.30615234 492.14526367 C88.65468545 493.8305008 81.94895364 495.24768689 75.2122345 496.54682922 C73.22208225 496.95665097 71.24004036 497.40737989 69.26689148 497.89250183 C60.388575 500.01654441 51.98694958 500.57526265 42.88818359 500.50854492 C41.45480856 500.50802411 40.02143281 500.50855032 38.58805847 500.51005554 C35.61059653 500.50996672 32.63341043 500.49972101 29.65600586 500.48144531 C25.87062794 500.45869898 22.08564904 500.45823522 18.30022144 500.46496296 C15.34967094 500.46832845 12.3992088 500.46162571 9.44867516 500.45183372 C8.05385489 500.44803044 6.65902473 500.44681285 5.26420021 500.44841957 C-3.69179649 500.45014638 -12.07662006 499.81846199 -20.76896667 497.62055969 C-23.26701603 497.00373562 -25.79397723 496.58575374 -28.32763672 496.14331055 C-33.97075496 495.14853843 -39.41014743 494.14963273 -44.70556641 491.89526367 C-47.34044521 490.90136047 -50.01691568 490.29380984 -52.75634766 489.64526367 C-57.37667076 488.53081388 -61.40102995 487.16541318 -65.69384766 485.14526367 C-70.54909206 483.03827082 -75.43418366 481.04236026 -80.36181641 479.11010742 C-84.05641459 477.58152157 -87.53167664 475.70704467 -91.02197266 473.76245117 C-91.82119141 473.31772461 -92.62041016 472.87299805 -93.44384766 472.41479492 C-94.68134766 471.72450195 -94.68134766 471.72450195 -95.94384766 471.02026367 C-96.78431641 470.55233398 -97.62478516 470.0844043 -98.49072266 469.60229492 C-100.55886001 468.45071844 -102.62655172 467.29834976 -104.69384766 466.14526367 C-104.69384766 465.48526367 -104.69384766 464.82526367 -104.69384766 464.14526367 C-105.78439453 464.00411133 -105.78439453 464.00411133 -106.89697266 463.86010742 C-110.12063417 463.03618276 -111.86620047 461.78804605 -114.44384766 459.70776367 C-115.22244141 459.09030273 -116.00103516 458.4728418 -116.80322266 457.83666992 C-118.69384766 456.14526367 -118.69384766 456.14526367 -119.69384766 454.14526367 C-120.35384766 454.00088867 -121.01384766 453.85651367 -121.69384766 453.70776367 C-122.35384766 453.52213867 -123.01384766 453.33651367 -123.69384766 453.14526367 C-124.18884766 451.66026367 -124.18884766 451.66026367 -124.69384766 450.14526367 C-126.34384766 449.81526367 -127.99384766 449.48526367 -129.69384766 449.14526367 C-130.18884766 447.66026367 -130.18884766 447.66026367 -130.69384766 446.14526367 C-132.34829606 445.44882797 -134.01690672 444.7856474 -135.69384766 444.14526367 C-137.67919922 442.59228516 -137.67919922 442.59228516 -139.58447266 440.76635742 C-140.64214844 439.76221802 -140.64214844 439.76221802 -141.72119141 438.73779297 C-142.45466797 438.0266333 -143.18814453 437.31547363 -143.94384766 436.58276367 C-144.70310547 435.85549072 -145.46236328 435.12821777 -146.24462891 434.37890625 C-148.40127246 432.30803829 -150.54806578 430.22737249 -152.69384766 428.14526367 C-153.61681641 427.26354492 -154.53978516 426.38182617 -155.49072266 425.47338867 C-161.04552273 420.07617158 -165.8725776 414.1973157 -170.69384766 408.14526367 C-171.46728516 407.21584961 -172.24072266 406.28643555 -173.03759766 405.32885742 C-173.76978516 404.44327148 -174.50197266 403.55768555 -175.25634766 402.64526367 C-175.91763672 401.85120117 -176.57892578 401.05713867 -177.26025391 400.23901367 C-178.69384766 398.14526367 -178.69384766 398.14526367 -178.69384766 395.14526367 C-179.35384766 394.81526367 -180.01384766 394.48526367 -180.69384766 394.14526367 C-184.95066727 389.64519722 -187.87150796 384.60819948 -190.92822266 379.23901367 C-192.53334842 376.42649241 -194.19287081 373.65822579 -195.88134766 370.89526367 C-199.87736573 364.24231869 -203.27354683 357.53355042 -205.69384766 350.14526367 C-205.36384766 349.48526367 -205.03384766 348.82526367 -204.69384766 348.14526367 C-205.35384766 348.14526367 -206.01384766 348.14526367 -206.69384766 348.14526367 C-207.64583497 345.52729855 -208.59720312 342.9091328 -209.54541016 340.28979492 C-210.27838643 338.28283607 -211.02210656 336.27974648 -211.77978516 334.28198242 C-213.66320219 329.2760582 -215.15250196 324.43605808 -216.19384766 319.19213867 C-216.70228139 316.84536008 -216.70228139 316.84536008 -218.25634766 313.64526367 C-219.7382326 310.03719598 -220.19589434 307.10592362 -220.48291016 303.25854492 C-220.63376194 301.12728916 -220.63376194 301.12728916 -221.27978516 299.06323242 C-221.69384766 297.14526367 -221.69384766 297.14526367 -220.69384766 294.14526367 C-221.35384766 294.14526367 -222.01384766 294.14526367 -222.69384766 294.14526367 C-224.23078193 284.22878528 -224.98294977 274.66920711 -224.92431641 264.61791992 C-224.92385818 263.30415878 -224.92339996 261.99039764 -224.92292786 260.63682556 C-224.92138308 257.88819892 -224.91324523 255.13970626 -224.8996582 252.39111328 C-224.88255303 248.88916281 -224.87884849 245.3873567 -224.87960339 241.8853693 C-224.87926486 238.5045339 -224.87042558 235.12374478 -224.86181641 231.74291992 C-224.86070358 230.49696548 -224.85959076 229.25101105 -224.85844421 227.96730042 C-224.77052484 211.81282691 -224.77052484 211.81282691 -221.69384766 206.14526367 C-221.34943413 203.99821882 -221.34943413 203.99821882 -221.25634766 201.70776367 C-220.55673921 193.27498329 -218.43921132 185.12987098 -215.69384766 177.14526367 C-215.37544922 176.1784668 -215.05705078 175.21166992 -214.72900391 174.21557617 C-212.0300551 166.0428557 -209.14470249 158.03293186 -205.69384766 150.14526367 C-205.03384766 150.14526367 -204.37384766 150.14526367 -203.69384766 150.14526367 C-204.02384766 149.15526367 -204.35384766 148.16526367 -204.69384766 147.14526367 C-203.76044564 145.44040636 -202.74548068 143.77984183 -201.69384766 142.14526367 C-200.60558822 139.88666196 -199.54379631 137.61515071 -198.50634766 135.33276367 C-197.97654297 134.17131836 -197.44673828 133.00987305 -196.90087891 131.81323242 C-196.50255859 130.93280273 -196.10423828 130.05237305 -195.69384766 129.14526367 C-195.03384766 129.14526367 -194.37384766 129.14526367 -193.69384766 129.14526367 C-193.62037109 128.47366211 -193.54689453 127.80206055 -193.47119141 127.11010742 C-192.44190926 123.18435289 -190.43199954 120.08231082 -188.25634766 116.70776367 C-187.81548828 116.01489258 -187.37462891 115.32202148 -186.92041016 114.6081543 C-183.77889536 109.71789259 -180.53545862 104.90089458 -177.19384766 100.14526367 C-176.77304932 99.54012939 -176.35225098 98.93499512 -175.91870117 98.31152344 C-174.89600612 96.88385035 -173.80127956 95.50825678 -172.69384766 94.14526367 C-172.03384766 94.14526367 -171.37384766 94.14526367 -170.69384766 94.14526367 C-170.43474609 93.56905273 -170.17564453 92.9928418 -169.90869141 92.39916992 C-168.59785383 89.96716581 -167.09786932 88.13813947 -165.25634766 86.08276367 C-164.65951172 85.41116211 -164.06267578 84.73956055 -163.44775391 84.04760742 C-162.36971815 82.87833478 -161.27190328 81.72650779 -160.14306641 80.60620117 C-158.63546429 79.0864082 -157.2992724 77.48897088 -155.94384766 75.83276367 C-153.31459654 72.73377042 -150.48719363 70.14265273 -147.36181641 67.55541992 C-144.37997026 65.03446803 -141.67342032 62.23786395 -139.06884766 59.33276367 C-137.69384766 58.14526367 -137.69384766 58.14526367 -134.69384766 58.14526367 C-134.44763672 57.55487305 -134.20142578 56.96448242 -133.94775391 56.35620117 C-130.15091542 49.66146414 -121.05139273 45.24048628 -114.69384766 41.14526367 C-113.411875 40.31188477 -113.411875 40.31188477 -112.10400391 39.46166992 C-104.18705957 34.36165844 -96.16876662 29.2745327 -87.69384766 25.14526367 C-86.72447266 24.65026367 -85.75509766 24.15526367 -84.75634766 23.64526367 C-82.09266221 22.34060141 -79.44943106 21.23468037 -76.69384766 20.14526367 C-75.29772971 19.50004582 -73.90193021 18.85413875 -72.50634766 18.20776367 C-68.34718493 16.33753614 -64.14753171 14.98753198 -59.76025391 13.75854492 C-57.6578943 13.19989018 -57.6578943 13.19989018 -55.69384766 12.14526367 C-54.70384766 12.64026367 -54.70384766 12.64026367 -53.69384766 13.14526367 C-53.69384766 12.48526367 -53.69384766 11.82526367 -53.69384766 11.14526367 C-51.6537501 10.49449071 -49.61169097 9.84986543 -47.56884766 9.20776367 C-46.43189453 8.84811523 -45.29494141 8.4884668 -44.12353516 8.11791992 C-40.97612399 7.22531698 -37.92176166 6.64677573 -34.69384766 6.14526367 C-33.66259766 5.83588867 -32.63134766 5.52651367 -31.56884766 5.20776367 C-24.7410693 3.18359929 -17.57491415 2.30427604 -10.50634766 1.58276367 C-6.44968038 1.11724448 -4.26414524 0.01507673 0 0 Z " fill="#DC143B" transform="translate(224.69384765625,-0.145263671875)"/>
<path d="M0 0 C1.21861725 -0.00637985 2.4372345 -0.0127597 3.69277954 -0.01933289 C5.03525757 -0.0208623 6.37773614 -0.02197587 7.72021484 -0.02270508 C9.09207189 -0.02591769 10.46392859 -0.02928177 11.83578491 -0.03279114 C14.71930738 -0.03879194 17.60279985 -0.04063029 20.48632812 -0.04003906 C24.16818445 -0.0399379 27.84984594 -0.05353834 31.53165627 -0.07081127 C34.36966826 -0.08197794 37.20763404 -0.08395677 40.04566574 -0.08342934 C42.05907369 -0.08517377 44.07246721 -0.09599367 46.08584595 -0.10697937 C52.22924149 -0.09170625 57.51437542 0.05063633 63.30615234 2.14526367 C65.02996487 2.34465048 66.76061372 2.49409658 68.49365234 2.58276367 C73.70639755 2.97821331 78.53930536 4.06794643 83.57958984 5.42651367 C85.29545048 5.87883223 87.02497705 6.28446465 88.76708984 6.62182617 C94.052058 7.71134269 99.16676685 9.51748677 104.30615234 11.14526367 C105.61132812 11.55325195 105.61132812 11.55325195 106.94287109 11.96948242 C111.29838715 13.36709284 115.2228015 15.06192141 119.30615234 17.14526367 C121.90403851 18.22066771 124.51561131 19.25441581 127.13427734 20.27807617 C129.30615234 21.14526367 129.30615234 21.14526367 131.30615234 22.14526367 C131.30615234 22.80526367 131.30615234 23.46526367 131.30615234 24.14526367 C132.29615234 23.81526367 133.28615234 23.48526367 134.30615234 23.14526367 C136.87255859 24.40307617 136.87255859 24.40307617 139.86865234 26.27026367 C143.66353663 28.58098743 147.41386406 30.74803402 151.43115234 32.64526367 C156.80332984 35.28018883 161.47755213 38.63355443 166.30615234 42.14526367 C167.91490234 43.25901367 167.91490234 43.25901367 169.55615234 44.39526367 C177.68596647 50.03436812 185.23898765 56.15320683 192.65380859 62.69995117 C194.42557123 64.24971991 196.22263604 65.7671056 198.02099609 67.28588867 C200.35197035 69.28119489 202.4732476 71.27340193 204.43115234 73.64526367 C206.60901663 76.2217549 208.83397575 78.71578517 211.18115234 81.13745117 C226.87751392 97.40651458 238.9144404 116.1247756 249.30615234 136.14526367 C249.88751953 137.21905273 250.46888672 138.2928418 251.06787109 139.39916992 C251.47650391 140.30538086 251.88513672 141.2115918 252.30615234 142.14526367 C251.97615234 142.80526367 251.64615234 143.46526367 251.30615234 144.14526367 C251.96615234 144.47526367 252.62615234 144.80526367 253.30615234 145.14526367 C254.20127031 146.6945063 255.02508585 148.28550468 255.80615234 149.89526367 C256.22896484 150.75635742 256.65177734 151.61745117 257.08740234 152.50463867 C266.22141489 172.29499918 272.47064283 195.48625138 274.30615234 217.14526367 C273.97615234 217.80526367 273.64615234 218.46526367 273.30615234 219.14526367 C273.96615234 219.14526367 274.62615234 219.14526367 275.30615234 219.14526367 C275.35261204 227.10814976 275.38809053 235.07097865 275.40977669 243.03396702 C275.420188 246.73200348 275.43429838 250.42994681 275.45703125 254.12792969 C275.47885473 257.70057521 275.4907409 261.27313148 275.49590683 264.84583855 C275.4995856 266.20490866 275.50676913 267.56397422 275.51761246 268.92300606 C275.5695895 275.71101527 275.57910658 281.71933337 273.30615234 288.14526367 C273.2829281 290.14512883 273.28250091 292.14540352 273.30615234 294.14526367 C272.88629062 296.34491662 272.40513196 298.53360945 271.86865234 300.70776367 C270.94138908 304.51088691 270.04362324 308.30039116 269.30615234 312.14526367 C268.64615234 312.14526367 267.98615234 312.14526367 267.30615234 312.14526367 C267.51111328 312.66604492 267.71607422 313.18682617 267.92724609 313.72338867 C268.46486576 317.15972057 267.45174752 319.61315707 266.36865234 322.89526367 C265.98837891 324.06573242 265.60810547 325.23620117 265.21630859 326.44213867 C264.91595703 327.33416992 264.61560547 328.22620117 264.30615234 329.14526367 C263.64615234 329.14526367 262.98615234 329.14526367 262.30615234 329.14526367 C262.63615234 330.13526367 262.96615234 331.12526367 263.30615234 332.14526367 C262.63427734 334.59838867 262.63427734 334.59838867 261.55615234 337.39526367 C261.18232422 338.37108398 260.80849609 339.3469043 260.42333984 340.35229492 C258.55017187 345.03521485 256.63556315 349.6656275 254.30615234 354.14526367 C253.64615234 354.14526367 252.98615234 354.14526367 252.30615234 354.14526367 C252.63615234 355.13526367 252.96615234 356.12526367 253.30615234 357.14526367 C252.58105469 359.10302734 252.58105469 359.10302734 251.39208984 361.31323242 C250.74433594 362.53042969 250.74433594 362.53042969 250.08349609 363.7722168 C249.62072266 364.61719727 249.15794922 365.46217773 248.68115234 366.33276367 C248.24158203 367.1584082 247.80201172 367.98405273 247.34912109 368.8347168 C244.53330888 374.07410932 241.50065173 379.13025038 238.30615234 384.14526367 C237.66291016 385.19713867 237.01966797 386.24901367 236.35693359 387.33276367 C235.78330078 388.26088867 235.20966797 389.18901367 234.61865234 390.14526367 C234.03728516 391.09401367 233.45591797 392.04276367 232.85693359 393.02026367 C232.34517578 393.72151367 231.83341797 394.42276367 231.30615234 395.14526367 C230.64615234 395.14526367 229.98615234 395.14526367 229.30615234 395.14526367 C229.03802734 395.88776367 228.76990234 396.63026367 228.49365234 397.39526367 C227.35338484 400.03588316 226.21234929 402.00079211 224.30615234 404.14526367 C223.64615234 404.14526367 222.98615234 404.14526367 222.30615234 404.14526367 C222.22365234 404.76401367 222.14115234 405.38276367 222.05615234 406.02026367 C221.06989796 408.8146511 219.87224835 408.86221567 217.30615234 410.14526367 C217.16000488 410.75523193 217.01385742 411.3652002 216.86328125 411.99365234 C216.19663009 414.56823458 215.21732051 415.65677193 213.39208984 417.57104492 C212.79525391 418.20333008 212.19841797 418.83561523 211.58349609 419.48706055 C210.95572266 420.13739258 210.32794922 420.78772461 209.68115234 421.45776367 C209.07658203 422.09649414 208.47201172 422.73522461 207.84912109 423.39331055 C206.01452474 425.32374402 204.16447135 427.2376692 202.30615234 429.14526367 C201.6807959 429.78818359 201.05543945 430.43110352 200.41113281 431.09350586 C199.80414551 431.71 199.1971582 432.32649414 198.57177734 432.96166992 C197.76015137 433.78646851 197.76015137 433.78646851 196.93212891 434.62792969 C194.75343995 436.66104558 192.37773123 438.29609578 189.91943359 439.96948242 C188.07711836 441.24838635 188.07711836 441.24838635 185.86865234 443.58276367 C182.61051744 446.84089857 179.03201195 449.4496607 175.30615234 452.14526367 C174.64615234 452.63768555 173.98615234 453.13010742 173.30615234 453.63745117 C168.54979641 457.14526367 168.54979641 457.14526367 166.30615234 457.14526367 C166.30615234 457.80526367 166.30615234 458.46526367 166.30615234 459.14526367 C164.65615234 459.47526367 163.00615234 459.80526367 161.30615234 460.14526367 C161.30615234 460.80526367 161.30615234 461.46526367 161.30615234 462.14526367 C159.47021484 463.44213867 159.47021484 463.44213867 156.93115234 464.89526367 C156.01720703 465.4237793 155.10326172 465.95229492 154.16162109 466.49682617 C153.21931641 467.04081055 152.27701172 467.58479492 151.30615234 468.14526367 C149.61774815 469.18546413 147.93021661 470.22708264 146.24365234 471.27026367 C142.38148977 473.59241165 138.48027974 475.51779934 134.33349609 477.27416992 C132.56287461 478.03495719 130.83555995 478.89497744 129.11865234 479.77026367 C126.22083153 481.18697607 123.37138442 482.14316857 120.30615234 483.14526367 C118.69865679 483.78276618 117.09478409 484.42944253 115.49365234 485.08276367 C103.33528538 489.99745801 103.33528538 489.99745801 97.30615234 491.14526367 C96.64615234 490.81526367 95.98615234 490.48526367 95.30615234 490.14526367 C95.30615234 490.80526367 95.30615234 491.46526367 95.30615234 492.14526367 C88.65468545 493.8305008 81.94895364 495.24768689 75.2122345 496.54682922 C73.22208225 496.95665097 71.24004036 497.40737989 69.26689148 497.89250183 C60.388575 500.01654441 51.98694958 500.57526265 42.88818359 500.50854492 C41.45480856 500.50802411 40.02143281 500.50855032 38.58805847 500.51005554 C35.61059653 500.50996672 32.63341043 500.49972101 29.65600586 500.48144531 C25.87062794 500.45869898 22.08564904 500.45823522 18.30022144 500.46496296 C15.34967094 500.46832845 12.3992088 500.46162571 9.44867516 500.45183372 C8.05385489 500.44803044 6.65902473 500.44681285 5.26420021 500.44841957 C-3.69179649 500.45014638 -12.07662006 499.81846199 -20.76896667 497.62055969 C-23.26701603 497.00373562 -25.79397723 496.58575374 -28.32763672 496.14331055 C-33.97075496 495.14853843 -39.41014743 494.14963273 -44.70556641 491.89526367 C-47.34044521 490.90136047 -50.01691568 490.29380984 -52.75634766 489.64526367 C-57.37667076 488.53081388 -61.40102995 487.16541318 -65.69384766 485.14526367 C-70.54909206 483.03827082 -75.43418366 481.04236026 -80.36181641 479.11010742 C-84.05641459 477.58152157 -87.53167664 475.70704467 -91.02197266 473.76245117 C-91.82119141 473.31772461 -92.62041016 472.87299805 -93.44384766 472.41479492 C-94.68134766 471.72450195 -94.68134766 471.72450195 -95.94384766 471.02026367 C-96.78431641 470.55233398 -97.62478516 470.0844043 -98.49072266 469.60229492 C-100.55886001 468.45071844 -102.62655172 467.29834976 -104.69384766 466.14526367 C-104.69384766 465.48526367 -104.69384766 464.82526367 -104.69384766 464.14526367 C-105.78439453 464.00411133 -105.78439453 464.00411133 -106.89697266 463.86010742 C-110.12063417 463.03618276 -111.86620047 461.78804605 -114.44384766 459.70776367 C-115.22244141 459.09030273 -116.00103516 458.4728418 -116.80322266 457.83666992 C-118.69384766 456.14526367 -118.69384766 456.14526367 -119.69384766 454.14526367 C-120.35384766 454.00088867 -121.01384766 453.85651367 -121.69384766 453.70776367 C-122.35384766 453.52213867 -123.01384766 453.33651367 -123.69384766 453.14526367 C-124.18884766 451.66026367 -124.18884766 451.66026367 -124.69384766 450.14526367 C-126.34384766 449.81526367 -127.99384766 449.48526367 -129.69384766 449.14526367 C-130.18884766 447.66026367 -130.18884766 447.66026367 -130.69384766 446.14526367 C-132.34829606 445.44882797 -134.01690672 444.7856474 -135.69384766 444.14526367 C-137.67919922 442.59228516 -137.67919922 442.59228516 -139.58447266 440.76635742 C-140.64214844 439.76221802 -140.64214844 439.76221802 -141.72119141 438.73779297 C-142.45466797 438.0266333 -143.18814453 437.31547363 -143.94384766 436.58276367 C-144.70310547 435.85549072 -145.46236328 435.12821777 -146.24462891 434.37890625 C-148.40127246 432.30803829 -150.54806578 430.22737249 -152.69384766 428.14526367 C-153.61681641 427.26354492 -154.53978516 426.38182617 -155.49072266 425.47338867 C-161.04552273 420.07617158 -165.8725776 414.1973157 -170.69384766 408.14526367 C-171.46728516 407.21584961 -172.24072266 406.28643555 -173.03759766 405.32885742 C-173.76978516 404.44327148 -174.50197266 403.55768555 -175.25634766 402.64526367 C-175.91763672 401.85120117 -176.57892578 401.05713867 -177.26025391 400.23901367 C-178.69384766 398.14526367 -178.69384766 398.14526367 -178.69384766 395.14526367 C-179.35384766 394.81526367 -180.01384766 394.48526367 -180.69384766 394.14526367 C-184.95066727 389.64519722 -187.87150796 384.60819948 -190.92822266 379.23901367 C-192.53334842 376.42649241 -194.19287081 373.65822579 -195.88134766 370.89526367 C-199.87736573 364.24231869 -203.27354683 357.53355042 -205.69384766 350.14526367 C-205.36384766 349.48526367 -205.03384766 348.82526367 -204.69384766 348.14526367 C-205.35384766 348.14526367 -206.01384766 348.14526367 -206.69384766 348.14526367 C-207.64583497 345.52729855 -208.59720312 342.9091328 -209.54541016 340.28979492 C-210.27838643 338.28283607 -211.02210656 336.27974648 -211.77978516 334.28198242 C-213.66320219 329.2760582 -215.15250196 324.43605808 -216.19384766 319.19213867 C-216.70228139 316.84536008 -216.70228139 316.84536008 -218.25634766 313.64526367 C-219.7382326 310.03719598 -220.19589434 307.10592362 -220.48291016 303.25854492 C-220.63376194 301.12728916 -220.63376194 301.12728916 -221.27978516 299.06323242 C-221.69384766 297.14526367 -221.69384766 297.14526367 -220.69384766 294.14526367 C-221.35384766 294.14526367 -222.01384766 294.14526367 -222.69384766 294.14526367 C-224.23078193 284.22878528 -224.98294977 274.66920711 -224.92431641 264.61791992 C-224.92385818 263.30415878 -224.92339996 261.99039764 -224.92292786 260.63682556 C-224.92138308 257.88819892 -224.91324523 255.13970626 -224.8996582 252.39111328 C-224.88255303 248.88916281 -224.87884849 245.3873567 -224.87960339 241.8853693 C-224.87926486 238.5045339 -224.87042558 235.12374478 -224.86181641 231.74291992 C-224.86070358 230.49696548 -224.85959076 229.25101105 -224.85844421 227.96730042 C-224.77052484 211.81282691 -224.77052484 211.81282691 -221.69384766 206.14526367 C-221.34943413 203.99821882 -221.34943413 203.99821882 -221.25634766 201.70776367 C-220.55673921 193.27498329 -218.43921132 185.12987098 -215.69384766 177.14526367 C-215.37544922 176.1784668 -215.05705078 175.21166992 -214.72900391 174.21557617 C-212.0300551 166.0428557 -209.14470249 158.03293186 -205.69384766 150.14526367 C-205.03384766 150.14526367 -204.37384766 150.14526367 -203.69384766 150.14526367 C-204.02384766 149.15526367 -204.35384766 148.16526367 -204.69384766 147.14526367 C-203.76044564 145.44040636 -202.74548068 143.77984183 -201.69384766 142.14526367 C-200.60558822 139.88666196 -199.54379631 137.61515071 -198.50634766 135.33276367 C-197.97654297 134.17131836 -197.44673828 133.00987305 -196.90087891 131.81323242 C-196.50255859 130.93280273 -196.10423828 130.05237305 -195.69384766 129.14526367 C-195.03384766 129.14526367 -194.37384766 129.14526367 -193.69384766 129.14526367 C-193.62037109 128.47366211 -193.54689453 127.80206055 -193.47119141 127.11010742 C-192.44190926 123.18435289 -190.43199954 120.08231082 -188.25634766 116.70776367 C-187.81548828 116.01489258 -187.37462891 115.32202148 -186.92041016 114.6081543 C-183.77889536 109.71789259 -180.53545862 104.90089458 -177.19384766 100.14526367 C-176.77304932 99.54012939 -176.35225098 98.93499512 -175.91870117 98.31152344 C-174.89600612 96.88385035 -173.80127956 95.50825678 -172.69384766 94.14526367 C-172.03384766 94.14526367 -171.37384766 94.14526367 -170.69384766 94.14526367 C-170.43474609 93.56905273 -170.17564453 92.9928418 -169.90869141 92.39916992 C-168.59785383 89.96716581 -167.09786932 88.13813947 -165.25634766 86.08276367 C-164.65951172 85.41116211 -164.06267578 84.73956055 -163.44775391 84.04760742 C-162.36971815 82.87833478 -161.27190328 81.72650779 -160.14306641 80.60620117 C-158.63546429 79.0864082 -157.2992724 77.48897088 -155.94384766 75.83276367 C-153.31459654 72.73377042 -150.48719363 70.14265273 -147.36181641 67.55541992 C-144.37997026 65.03446803 -141.67342032 62.23786395 -139.06884766 59.33276367 C-137.69384766 58.14526367 -137.69384766 58.14526367 -134.69384766 58.14526367 C-134.44763672 57.55487305 -134.20142578 56.96448242 -133.94775391 56.35620117 C-130.15091542 49.66146414 -121.05139273 45.24048628 -114.69384766 41.14526367 C-113.411875 40.31188477 -113.411875 40.31188477 -112.10400391 39.46166992 C-104.18705957 34.36165844 -96.16876662 29.2745327 -87.69384766 25.14526367 C-86.72447266 24.65026367 -85.75509766 24.15526367 -84.75634766 23.64526367 C-82.09266221 22.34060141 -79.44943106 21.23468037 -76.69384766 20.14526367 C-75.29772971 19.50004582 -73.90193021 18.85413875 -72.50634766 18.20776367 C-68.34718493 16.33753614 -64.14753171 14.98753198 -59.76025391 13.75854492 C-57.6578943 13.19989018 -57.6578943 13.19989018 -55.69384766 12.14526367 C-54.70384766 12.64026367 -54.70384766 12.64026367 -53.69384766 13.14526367 C-53.69384766 12.48526367 -53.69384766 11.82526367 -53.69384766 11.14526367 C-51.6537501 10.49449071 -49.61169097 9.84986543 -47.56884766 9.20776367 C-46.43189453 8.84811523 -45.29494141 8.4884668 -44.12353516 8.11791992 C-40.97612399 7.22531698 -37.92176166 6.64677573 -34.69384766 6.14526367 C-33.66259766 5.83588867 -32.63134766 5.52651367 -31.56884766 5.20776367 C-24.7410693 3.18359929 -17.57491415 2.30427604 -10.50634766 1.58276367 C-6.44968038 1.11724448 -4.26414524 0.01507673 0 0 Z M-21.69384766 23.14526367 C-22.78761719 23.38132324 -23.88138672 23.61738281 -25.00830078 23.8605957 C-55.10848318 30.52612724 -83.6299379 43.14441683 -108.69384766 61.14526367 C-109.76119141 61.90709961 -110.82853516 62.66893555 -111.92822266 63.45385742 C-117.71590181 67.69179 -123.14493475 72.18392643 -128.41259766 77.05151367 C-130.37965089 78.85689129 -132.39079219 80.56518371 -134.44384766 82.27026367 C-151.79683013 97.48910919 -164.93059564 116.46293118 -176.69384766 136.14526367 C-177.25797363 137.08523193 -177.25797363 137.08523193 -177.83349609 138.04418945 C-189.52420934 157.8415616 -196.97580293 180.27141641 -201.88134766 202.64526367 C-202.114104 203.69302979 -202.114104 203.69302979 -202.3515625 204.76196289 C-205.43788513 219.68199365 -206.07189002 234.58325969 -206.00634766 249.77026367 C-206.00386017 250.69446106 -206.00137268 251.61865845 -205.99880981 252.57086182 C-205.85779386 286.4989348 -199.85922131 320.92528171 -183.69384766 351.14526367 C-183.05576172 352.48137695 -183.05576172 352.48137695 -182.40478516 353.84448242 C-170.73483699 378.26010023 -153.36560867 398.85871395 -134.32006836 417.8347168 C-132.48803827 419.66354102 -130.66990215 421.50548194 -128.85205078 423.34838867 C-120.1458609 432.38046244 -120.1458609 432.38046244 -109.69384766 439.14526367 C-108.70384766 439.14526367 -107.71384766 439.14526367 -106.69384766 439.14526367 C-106.69384766 439.80526367 -106.69384766 440.46526367 -106.69384766 441.14526367 C-104.45474703 442.75123929 -102.22886757 444.2116428 -99.88134766 445.64526367 C-99.16430664 446.08596191 -98.44726562 446.52666016 -97.70849609 446.98071289 C-82.97572517 455.91360477 -67.84648016 463.16590089 -51.69384766 469.14526367 C-51.04528809 469.39115234 -50.39672852 469.63704102 -49.72851562 469.89038086 C6.07795944 490.88331835 69.92098413 484.25800473 123.52050781 460.42114258 C134.74159672 455.2816675 145.22405696 449.2745554 155.30615234 442.14526367 C156.45964023 441.34295321 157.61329321 440.54088006 158.76708984 439.73901367 C168.16540361 433.16096041 177.23728655 426.33922816 185.30615234 418.14526367 C186.58232422 416.90389648 186.58232422 416.90389648 187.88427734 415.63745117 C194.17270188 409.47773708 199.86540051 403.08118395 205.30615234 396.14526367 C205.89912109 395.40791992 206.49208984 394.67057617 207.10302734 393.91088867 C231.11069819 363.73610972 245.24984271 329.63250623 253.30615234 292.14526367 C253.48984375 291.31414062 253.67353516 290.48301758 253.86279297 289.62670898 C259.19982077 264.39808952 258.64278142 234.31091093 253.30615234 209.14526367 C253.00143301 207.59709285 252.69674592 206.04891569 252.39208984 204.50073242 C245.92324083 172.80136743 233.41920812 142.36514582 214.30615234 116.14526367 C213.90187012 115.58693848 213.49758789 115.02861328 213.08105469 114.45336914 C207.74269865 107.14301634 201.95761088 100.38762784 195.75146484 93.80151367 C193.30615234 91.14526367 193.30615234 91.14526367 191.20849609 88.50073242 C189.49550586 86.37971987 187.82331356 84.70503843 185.74365234 82.95776367 C183.43364064 80.99404257 181.1730148 79.01881645 178.97412109 76.93041992 C132.94392603 33.30425962 71.01098106 17.64018145 9.28173828 18.97045898 C-1.23554373 19.27998138 -11.4296056 20.86704678 -21.69384766 23.14526367 Z " fill="#023993" transform="translate(224.69384765625,-0.145263671875)"/>
<path d="M0 0 C9.72600725 5.32790382 16.83695084 13.39293011 20.19140625 23.99609375 C22.91324847 34.62246407 22.00050133 44.19609402 16.51171875 53.84765625 C10.55187243 61.0018986 3.92674387 67.56811243 -2.67041016 74.12744141 C-3.65566624 75.11077217 -4.64069036 76.0943354 -5.62550354 77.07810974 C-7.72578917 79.17526461 -9.8276099 81.27086359 -11.93068314 83.36522293 C-15.26302415 86.68389904 -18.59141994 90.00651381 -21.91928101 93.3296814 C-28.9809672 100.38032933 -36.04689847 107.42671586 -43.11328125 114.47265625 C-50.75211358 122.08940588 -58.39018012 129.7069146 -66.02336633 137.32932317 C-69.32501982 140.62602555 -72.62908776 143.92028212 -75.93509316 147.21262002 C-77.99652908 149.26654743 -80.05584682 151.32258885 -82.11462212 153.37918282 C-83.51061031 154.77243553 -84.90911704 156.16316337 -86.307724 157.55378723 C-90.68678122 161.93247975 -94.93364935 166.36225785 -98.95723534 171.07115746 C-101.73192469 174.29067704 -104.65620473 177.35884323 -107.61328125 180.41015625 C-108.20753906 181.05017578 -108.80179688 181.69019531 -109.4140625 182.34960938 C-109.99800781 182.94837891 -110.58195312 183.54714844 -111.18359375 184.1640625 C-111.69937988 184.70490479 -112.21516602 185.24574707 -112.74658203 185.80297852 C-114.48828125 186.84765625 -114.48828125 186.84765625 -116.92163086 186.68041992 C-127.22467895 183.33753996 -135.15408127 173.61245891 -142.56567383 166.10644531 C-144.54158124 164.10696602 -146.53045101 162.12112434 -148.52148438 160.13671875 C-169.00799243 139.60896591 -169.00799243 139.60896591 -169.48828125 133.84765625 C-168.06115723 131.82598877 -168.06115723 131.82598877 -165.85742188 129.66503906 C-165.0390686 128.85029114 -164.22071533 128.03554321 -163.37756348 127.19610596 C-162.47566284 126.3231488 -161.57376221 125.45019165 -160.64453125 124.55078125 C-159.24290901 123.16359698 -157.84128875 121.7764107 -156.43978119 120.38911057 C-154.46583154 118.44157176 -152.48048872 116.50583587 -150.49536133 114.56970215 C-147.05030739 111.2047333 -143.62425638 107.82041088 -140.19665527 104.43768311 C-138.37206299 102.63928133 -136.54355839 100.84483743 -134.71057129 99.05499268 C-133.86700073 98.22763611 -133.02343018 97.40027954 -132.15429688 96.54785156 C-131.42069946 95.83155579 -130.68710205 95.11526001 -129.93127441 94.3772583 C-127.93868898 92.31403181 -126.05695218 90.21967025 -124.18292236 88.05122375 C-120.51782374 83.83066371 -116.65179174 79.84960272 -112.70800781 75.89038086 C-111.59181061 74.76432686 -111.59181061 74.76432686 -110.45306396 73.61552429 C-108.01455668 71.15747024 -105.57219315 68.70330275 -103.12890625 66.25 C-102.28851555 65.40553377 -101.44812485 64.56106754 -100.58226776 63.69101143 C-96.13756424 59.22553138 -91.68965027 54.76327681 -87.23925781 50.3034668 C-82.66374422 45.71687719 -78.10003308 41.11872717 -73.53885269 36.51788998 C-70.0091795 32.96199227 -66.47057305 29.41508521 -62.9295578 25.87048531 C-61.2438263 24.17990691 -59.56145205 22.48597348 -57.88263702 20.78852654 C-41.81792515 4.55658767 -24.26398664 -11.23685409 0 0 Z " fill="#FEFEFE" transform="translate(233.48828125,252.15234375)"/>
<path d="M0 0 C-2.76366147 13.64614203 -5.93428098 27.15523152 -9.33203125 40.65625 C-9.84682223 42.7126769 -10.36132082 44.76917701 -10.87554932 46.82574463 C-12.23706793 52.26687227 -13.60307822 57.70686224 -14.97017288 63.14659119 C-16.09875586 67.63962011 -17.22466462 72.13331741 -18.35060024 76.62701035 C-26.82278423 110.43772776 -35.35582626 144.23282168 -44 178 C-44.53190948 177.59315979 -45.06381897 177.18631958 -45.61184692 176.76715088 C-46.31888763 176.2307196 -47.02592834 175.69428833 -47.75439453 175.14160156 C-48.45130402 174.61101135 -49.1482135 174.08042114 -49.86624146 173.53375244 C-53.03696928 171.25462318 -56.37759816 169.47121643 -59.875 167.75 C-60.90947266 167.23469727 -60.90947266 167.23469727 -61.96484375 166.70898438 C-67.17171862 164.2028717 -72.21287867 162.55645397 -78 162 C-78.02578125 160.97003906 -78.0515625 159.94007813 -78.078125 158.87890625 C-78.83898351 137.2751358 -84.23161152 116.69746619 -100 101 C-111.53711198 90.47717901 -123.88872899 84.04661462 -139 80 C-140.16982422 79.67708984 -140.16982422 79.67708984 -141.36328125 79.34765625 C-147.8146552 77.73186424 -154.37869624 77.38888647 -161 77 C-161.36351562 75.96101563 -161.72703125 74.92203125 -162.1015625 73.8515625 C-165.56638948 64.15772848 -169.58865543 55.7577475 -175.59936523 47.35571289 C-176.04908188 46.72685684 -176.49879852 46.09800079 -176.96214294 45.4500885 C-177.30463577 44.9715593 -177.6471286 44.49303009 -178 44 C-137.96822238 33.80166713 -97.91423751 23.69184486 -57.84228516 13.65252686 C-53.10523494 12.46566531 -48.36860694 11.27713977 -43.63232422 10.08721924 C-37.99493004 8.67104694 -32.35666941 7.25837814 -26.71772003 5.84841156 C-24.61664144 5.32247081 -22.51586286 4.79532998 -20.41539764 4.26694489 C-17.53132449 3.54169544 -14.6461929 2.82082019 -11.76074219 2.10107422 C-10.91044937 1.88619669 -10.06015656 1.67131916 -9.18409729 1.44993019 C-6.05380056 0.67297167 -3.23864815 0 0 0 Z " fill="#FEFDFD" transform="translate(368,136)"/>
<path d="M0 0 C4.01297472 4.32166508 5.1629626 6.91849393 5.25 12.75 C5.27578125 13.77609375 5.3015625 14.8021875 5.328125 15.859375 C4.66663341 22.19079448 1.24899148 26.12602558 -3.13075256 30.50497437 C-3.6464323 31.02462851 -4.16211204 31.54428266 -4.69341844 32.0796839 C-6.41364845 33.80949606 -8.14433869 35.52843374 -9.87524414 37.24755859 C-11.11443508 38.48917873 -12.35297985 39.73144407 -13.59092712 40.9743042 C-16.94752129 44.34028993 -20.3134341 47.69681101 -23.68138433 51.05142927 C-27.20329995 54.56202182 -30.71749223 58.08033062 -34.23277283 61.5975647 C-40.1331388 67.49881296 -46.03945198 73.39405648 -51.94946289 79.28564453 C-58.78994482 86.10492556 -65.62151874 92.93303055 -72.44829088 99.76603448 C-79.01153756 106.33496618 -85.5804242 112.8982282 -92.15212822 119.45869827 C-94.951696 122.25361213 -97.74935903 125.05041261 -100.54554939 127.84870529 C-103.83312954 131.13816262 -107.12563223 134.42261125 -110.4220829 137.70317841 C-111.6340183 138.91085545 -112.84424123 140.12025367 -114.0526619 141.3314476 C-115.69595145 142.97793703 -117.34521243 144.61819401 -118.99623108 146.25692749 C-119.91965837 147.17830191 -120.84308565 148.09967632 -121.79449558 149.04897118 C-124 151 -124 151 -126 151 C-126.32613281 150.21496094 -126.65226562 149.42992187 -126.98828125 148.62109375 C-129.70657137 142.075841 -129.70657137 142.075841 -132.5 135.5625 C-139.6798261 118.510413 -139.6798261 118.510413 -140 114 C-138.42802429 112.0561676 -138.42802429 112.0561676 -135.9831543 110.09985352 C-131.48949355 106.3108378 -127.25504848 102.38909898 -123.10083008 98.23022461 C-122.48120738 97.61250466 -121.86158468 96.99478472 -121.22318554 96.35834599 C-119.23629164 94.37534089 -117.25278325 92.38899069 -115.26953125 90.40234375 C-113.86584272 88.99933053 -112.46200593 87.59646564 -111.05802917 86.19374084 C-108.13251948 83.26969648 -105.20880305 80.34387421 -102.28637695 77.41674805 C-98.55785723 73.68252115 -94.82485057 69.95281709 -91.09048939 66.22443295 C-88.19662417 63.33419587 -85.30516286 60.44156329 -82.41440392 57.54821968 C-81.03934604 56.17249932 -79.66355769 54.79750864 -78.28699684 53.42329216 C-69.15506394 44.33190672 -69.15506394 44.33190672 -60.5330658 34.76213074 C-57.60288816 31.39413695 -54.42622322 28.26349087 -51.2734375 25.10546875 C-50.56273102 24.39143387 -49.85202454 23.67739899 -49.11978149 22.94172668 C-47.63031342 21.44723499 -46.13952385 19.95405928 -44.64746094 18.4621582 C-42.36885311 16.18134717 -40.09838659 13.89263077 -37.828125 11.60351562 C-36.37288547 10.14534452 -34.91717277 8.68764544 -33.4609375 7.23046875 C-32.78686859 6.54921432 -32.11279968 5.8679599 -31.41830444 5.1660614 C-22.35860816 -3.84992664 -11.3823525 -8.00884984 0 0 Z " fill="#FEFDFD" transform="translate(168,203)"/>
<path d="M0 0 C4.71716528 2.68230967 8.10871652 5.76271181 10.1875 10.8125 C10.48828125 13.1796875 10.48828125 13.1796875 10.5 15.6875 C10.51675781 16.50992187 10.53351563 17.33234375 10.55078125 18.1796875 C9.76645619 23.86393578 6.62927627 27.74475652 2.66416931 31.68986511 C1.27398338 33.08406929 1.27398338 33.08406929 -0.14428711 34.50643921 C-1.16905441 35.51899655 -2.19396143 36.53141251 -3.21899414 37.54370117 C-4.30057373 38.62279553 -5.38148421 39.70256088 -6.46177673 40.78294373 C-9.38894811 43.70671172 -12.32518859 46.62121692 -15.26301885 49.53426909 C-18.33738296 52.58611511 -21.40282303 55.64689686 -24.46910095 58.7068634 C-30.27613826 64.49942628 -36.09035572 70.28472211 -41.90755886 76.06707412 C-52.33164895 86.42918067 -62.74353053 96.80354796 -73.15270895 107.18063146 C-76.80625928 110.82234339 -80.46296193 114.46085229 -84.12232029 118.09672773 C-86.39534834 120.3559402 -88.66639853 122.61713348 -90.937006 124.87877846 C-91.99149894 125.92819787 -93.04686819 126.97673758 -94.10316849 128.02433777 C-95.54311884 129.45261657 -96.97972687 130.88426268 -98.41615295 132.31608582 C-99.22159074 133.11670535 -100.02702852 133.91732489 -100.85687351 134.74220562 C-102.96185884 136.85440971 -102.96185884 136.85440971 -104.8125 139.8125 C-112.05256198 139.30656796 -118.20125146 137.04934606 -124.9375 134.4375 C-125.99582031 134.03789062 -127.05414063 133.63828125 -128.14453125 133.2265625 C-133.16848401 131.31027437 -138.0718265 129.35507575 -142.8125 126.8125 C-139.26398066 122.57158665 -135.62491981 118.5817115 -131.67883968 114.71141338 C-129.94046945 112.94270293 -128.32981011 111.12370241 -126.72450256 109.23457336 C-122.2574223 104.10056187 -117.46545814 99.31011307 -112.65795898 94.49682617 C-111.65170788 93.48593567 -110.64565057 92.47485223 -109.63977051 91.46359253 C-106.92955997 88.74037632 -104.21612184 86.02039999 -101.50163531 83.30144668 C-99.80305958 81.59992499 -98.10506612 79.89782428 -96.40724373 78.19555092 C-91.08619745 72.86086987 -85.76318258 67.52816499 -80.43725342 62.19835871 C-74.30374002 56.06035419 -68.17684323 49.91584387 -62.05554909 43.76565379 C-57.30991214 38.99839754 -52.55852328 34.23692441 -47.802733 29.47979718 C-44.96755472 26.64357239 -42.13484401 23.80498476 -39.30810356 20.96034813 C-36.65278879 18.28854523 -33.99039393 15.62400595 -31.3224411 12.96482468 C-30.3467279 11.98988106 -29.37356027 11.01238195 -28.40319252 10.03211784 C-27.07484756 8.69102631 -25.73623967 7.36012373 -24.39720154 6.02970886 C-23.27979914 4.91010663 -23.27979914 4.91010663 -22.13982296 3.76788616 C-15.26285433 -2.0100525 -8.35684943 -2.6029531 0 0 Z " fill="#FEFDFD" transform="translate(293.8125,333.1875)"/>
<path d="" fill="#000FAA" transform="translate(0,0)"/>
<path d="" fill="#0000A4" transform="translate(0,0)"/>
<path d="" fill="#0055AA" transform="translate(0,0)"/>
<path d="" fill="#0055AA" transform="translate(0,0)"/>
<path d="" fill="#001C97" transform="translate(0,0)"/>
<path d="" fill="#008080" transform="translate(0,0)"/>
<path d="" fill="#008080" transform="translate(0,0)"/>
</svg>
